<svg width="935" height="273" viewBox="0 0 935 273" fill="none" xmlns="http://www.w3.org/2000/svg">
<path d="M779 7.00008C779 3.68638 781.686 1.00008 785 1.00008H820C823.314 1.00008 826 3.68638 826 7.00008V53.0001C826 56.3138 823.314 59.0001 820 59.0001H785C781.686 59.0001 779 56.3138 779 53.0001V7.00008Z" fill="url(#paint0_linear_19_45)"/>
<path d="M779 77.0001C779 73.6864 781.686 71.0001 785 71.0001H820C823.314 71.0001 826 73.6864 826 77.0001V131C826 134.314 823.314 137 820 137H785C781.686 137 779 134.314 779 131V77.0001Z" fill="url(#paint1_linear_19_45)"/>
<path d="M779 155C779 151.686 781.686 149 785 149H820C823.314 149 826 151.686 826 155V181C826 184.314 823.314 187 820 187H785C781.686 187 779 184.314 779 181V155Z" fill="url(#paint2_linear_19_45)"/>
<path d="M834 7.00008C834 3.68637 836.686 1.00008 840 1.00008H874C877.314 1.00008 880 3.68638 880 7.00008V87.0001C880 90.3138 877.314 93.0001 874 93.0001H840C836.686 93.0001 834 90.3138 834 87.0001V7.00008Z" fill="url(#paint3_linear_19_45)"/>
<path d="M834 111C834 107.686 836.686 105 840 105H874C877.314 105 880 107.686 880 111V139C880 142.314 877.314 145 874 145H840C836.686 145 834 142.314 834 139V111Z" fill="url(#paint4_linear_19_45)"/>
<path d="M834 163C834 159.686 836.686 157 840 157H874C877.314 157 880 159.686 880 163V181C880 184.314 877.314 187 874 187H840C836.686 187 834 184.314 834 181V163Z" fill="url(#paint5_linear_19_45)"/>
<path d="M888 7.00008C888 3.68638 890.686 1.00008 894 1.00008H929C932.314 1.00008 935 3.68638 935 7.00008V30.0001C935 33.3138 932.314 36.0001 929 36.0001H894C890.686 36.0001 888 33.3138 888 30.0001V7.00008Z" fill="url(#paint6_linear_19_45)"/>
<path d="M888 54.0001C888 50.6864 890.686 48.0001 894 48.0001H929C932.314 48.0001 935 50.6864 935 54.0001V111C935 114.314 932.314 117 929 117H894C890.686 117 888 114.314 888 111V54.0001Z" fill="url(#paint7_linear_19_45)"/>
<path d="M888 135C888 131.686 890.686 129 894 129H929C932.314 129 935 131.686 935 135V181C935 184.314 932.314 187 929 187H894C890.686 187 888 184.314 888 181V135Z" fill="url(#paint8_linear_19_45)"/>
<path d="M84.224 190.492C69.2214 190.492 55.3827 186.871 42.708 179.628C30.0333 172.127 19.816 162.297 12.056 150.14C4.29602 137.983 0.416016 124.92 0.416016 110.952V79.1361C0.416016 65.1681 4.16668 52.2347 11.668 40.3361C19.1693 28.1787 29.2574 18.4787 41.932 11.2361C54.8654 3.99341 68.9627 0.37207 84.224 0.37207C99.4854 0.37207 113.453 3.99341 126.128 11.2361C139.061 18.2201 149.279 27.6614 156.78 39.5601C164.54 51.4587 168.42 64.6507 168.42 79.1361V110.952C168.42 124.661 164.54 137.595 156.78 149.752C149.02 161.909 138.673 171.739 125.74 179.24C113.065 186.741 99.2267 190.492 84.224 190.492ZM84.224 146.648C90.432 146.648 96.1227 144.967 101.296 141.604C106.469 138.241 110.608 133.844 113.712 128.412C116.816 122.721 118.368 116.901 118.368 110.952V79.1361C118.368 73.1867 116.816 67.6254 113.712 62.4521C110.608 57.2787 106.469 53.0107 101.296 49.6481C96.3814 46.0267 90.6907 44.2161 84.224 44.2161C78.016 44.2161 72.3253 45.8974 67.152 49.2601C61.9787 52.6227 57.84 57.0201 54.736 62.4521C51.8907 67.6254 50.468 73.1867 50.468 79.1361V110.952C50.468 116.901 51.8907 122.721 54.736 128.412C57.84 133.844 61.9787 138.241 67.152 141.604C72.3253 144.967 78.016 146.648 84.224 146.648Z" fill="url(#paint9_linear_19_45)"/>
<path d="M225.095 272.748C218.111 272.748 212.291 271.067 207.635 267.704C202.979 264.341 200.651 260.72 200.651 256.84V18.2201C200.651 13.5641 202.979 9.81341 207.635 6.96808C212.291 4.12274 217.982 2.70008 224.707 2.70008C231.433 2.70008 236.865 4.12274 241.003 6.96808C245.401 9.81341 247.599 13.5641 247.599 18.2201V29.8601C251.997 22.3587 258.722 15.6334 267.775 9.68408C276.829 3.47607 287.563 0.37207 299.979 0.37207C313.171 0.37207 324.941 3.99341 335.287 11.2361C345.893 18.2201 354.17 27.6614 360.119 39.5601C366.327 51.4587 369.431 64.6507 369.431 79.1361V110.952C369.431 124.661 366.327 137.595 360.119 149.752C353.911 161.909 345.634 171.739 335.287 179.24C325.199 186.741 313.947 190.492 301.531 190.492C290.15 190.492 279.803 187.388 270.491 181.18C261.179 174.972 254.583 167.859 250.703 159.84V256.84C250.703 260.72 248.246 264.341 243.331 267.704C238.417 271.067 232.338 272.748 225.095 272.748ZM285.235 146.648C291.443 146.648 297.005 144.967 301.919 141.604C307.093 137.983 311.231 133.456 314.335 128.024C317.698 122.592 319.379 116.901 319.379 110.952V79.1361C319.379 73.1867 317.827 67.6254 314.723 62.4521C311.619 57.2787 307.351 53.0107 301.919 49.6481C296.746 46.0267 290.926 44.2161 284.459 44.2161C278.769 44.2161 273.337 45.6387 268.163 48.4841C263.249 51.3294 259.11 55.3387 255.747 60.5121C252.385 65.6854 250.703 71.8934 250.703 79.1361V117.936C250.703 120.523 252.126 124.144 254.971 128.8C258.075 133.197 262.214 137.336 267.387 141.216C272.561 144.837 278.51 146.648 285.235 146.648Z" fill="url(#paint10_linear_19_45)"/>
<path d="M484.107 190.492C468.587 190.492 454.36 186.871 441.427 179.628C428.752 172.127 418.535 162.427 410.775 150.528C403.273 138.371 399.523 125.437 399.523 111.728V18.6081C399.523 14.7281 401.98 11.1067 406.895 7.74408C412.068 4.38141 418.017 2.70008 424.743 2.70008C431.468 2.70008 437.288 4.38141 442.203 7.74408C447.117 11.1067 449.575 14.7281 449.575 18.6081V111.728C449.575 117.677 451.127 123.239 454.231 128.412C457.335 133.585 461.473 137.983 466.647 141.604C471.82 144.967 477.511 146.648 483.719 146.648C490.185 146.648 495.876 144.967 500.791 141.604C505.964 138.241 510.103 133.844 513.207 128.412C516.311 122.98 517.863 117.419 517.863 111.728V18.2201C517.863 14.0814 520.32 10.4601 525.234 7.35607C530.408 4.25207 536.228 2.70008 542.695 2.70008C550.196 2.70008 556.275 4.25207 560.931 7.35607C565.587 10.4601 567.915 14.0814 567.915 18.2201V111.728C567.915 125.696 564.035 138.759 556.275 150.916C548.773 162.815 538.556 172.385 525.622 179.628C512.948 186.871 499.109 190.492 484.107 190.492Z" fill="url(#paint11_linear_19_45)"/>
<path d="M665.075 190.492C652.142 190.492 640.243 188.94 629.379 185.836C618.774 182.473 610.367 178.205 604.159 173.032C598.21 167.859 595.235 162.556 595.235 157.124C595.235 154.279 595.882 151.175 597.175 147.812C598.727 144.449 600.667 141.475 602.995 138.888C605.582 136.301 608.557 135.008 611.919 135.008C615.541 135.008 619.291 136.56 623.171 139.664C627.31 142.509 632.354 145.355 638.303 148.2C644.511 151.045 653.047 152.468 663.911 152.468C675.551 152.468 683.182 150.657 686.803 147.036C690.683 143.415 692.623 139.664 692.623 135.784C692.623 130.093 690.295 125.696 685.639 122.592C681.242 119.488 675.551 117.031 668.567 115.22C661.583 113.151 654.082 110.952 646.063 108.624C638.303 106.296 630.931 103.321 623.947 99.7001C616.963 95.8201 611.273 90.6467 606.875 84.1801C602.478 77.4547 600.279 68.7894 600.279 58.1841C600.279 48.8721 602.478 39.8187 606.875 31.0241C611.273 22.2294 618.515 14.9867 628.603 9.29607C638.691 3.34674 652.401 0.37207 669.731 0.37207C680.337 0.37207 690.295 1.53607 699.607 3.86407C709.178 5.93341 716.938 8.90808 722.887 12.7881C728.836 16.6681 731.811 20.9361 731.811 25.5921C731.811 27.9201 731.035 31.0241 729.483 34.9041C727.931 38.5254 725.732 41.8881 722.887 44.9921C720.3 48.0961 717.067 49.6481 713.187 49.6481C710.342 49.6481 706.85 48.7427 702.711 46.9321C698.831 44.8627 694.304 42.9227 689.131 41.1121C683.958 39.3014 677.75 38.3961 670.507 38.3961C664.041 38.3961 658.867 39.3014 654.987 41.1121C651.107 42.9227 648.262 45.1214 646.451 47.7081C644.641 50.2947 643.735 53.0107 643.735 55.8561C643.735 60.5121 645.934 64.1334 650.331 66.7201C654.729 69.3067 660.419 71.5054 667.403 73.3161C674.646 75.1267 682.147 77.1961 689.907 79.5241C697.926 81.5934 705.427 84.6974 712.411 88.8361C719.654 92.9747 725.474 98.6654 729.871 105.908C734.268 112.892 736.467 122.075 736.467 133.456C736.467 150.787 730.259 164.625 717.843 174.972C705.686 185.319 688.097 190.492 665.075 190.492Z" fill="url(#paint12_linear_19_45)"/>
<defs>
<linearGradient id="paint0_linear_19_45" x1="575.455" y1="-419" x2="751.927" y2="381.574" gradientUnits="userSpaceOnUse">
<stop offset="0.459617" stop-color="#7855EF"/>
<stop offset="1" stop-color="#5127B0"/>
</linearGradient>
<linearGradient id="paint1_linear_19_45" x1="575.455" y1="-419" x2="751.927" y2="381.574" gradientUnits="userSpaceOnUse">
<stop offset="0.459617" stop-color="#7855EF"/>
<stop offset="1" stop-color="#5127B0"/>
</linearGradient>
<linearGradient id="paint2_linear_19_45" x1="575.455" y1="-419" x2="751.927" y2="381.574" gradientUnits="userSpaceOnUse">
<stop offset="0.459617" stop-color="#7855EF"/>
<stop offset="1" stop-color="#5127B0"/>
</linearGradient>
<linearGradient id="paint3_linear_19_45" x1="575.455" y1="-419" x2="751.927" y2="381.574" gradientUnits="userSpaceOnUse">
<stop offset="0.459617" stop-color="#7855EF"/>
<stop offset="1" stop-color="#5127B0"/>
</linearGradient>
<linearGradient id="paint4_linear_19_45" x1="575.455" y1="-419" x2="751.927" y2="381.574" gradientUnits="userSpaceOnUse">
<stop offset="0.459617" stop-color="#7855EF"/>
<stop offset="1" stop-color="#5127B0"/>
</linearGradient>
<linearGradient id="paint5_linear_19_45" x1="575.455" y1="-419" x2="751.927" y2="381.574" gradientUnits="userSpaceOnUse">
<stop offset="0.459617" stop-color="#7855EF"/>
<stop offset="1" stop-color="#5127B0"/>
</linearGradient>
<linearGradient id="paint6_linear_19_45" x1="575.455" y1="-419" x2="751.927" y2="381.574" gradientUnits="userSpaceOnUse">
<stop offset="0.459617" stop-color="#7855EF"/>
<stop offset="1" stop-color="#5127B0"/>
</linearGradient>
<linearGradient id="paint7_linear_19_45" x1="575.455" y1="-419" x2="751.927" y2="381.574" gradientUnits="userSpaceOnUse">
<stop offset="0.459617" stop-color="#7855EF"/>
<stop offset="1" stop-color="#5127B0"/>
</linearGradient>
<linearGradient id="paint8_linear_19_45" x1="575.455" y1="-419" x2="751.927" y2="381.574" gradientUnits="userSpaceOnUse">
<stop offset="0.459617" stop-color="#7855EF"/>
<stop offset="1" stop-color="#5127B0"/>
</linearGradient>
<linearGradient id="paint9_linear_19_45" x1="575.455" y1="-419" x2="751.927" y2="381.574" gradientUnits="userSpaceOnUse">
<stop offset="0.459617" stop-color="#7855EF"/>
<stop offset="1" stop-color="#5127B0"/>
</linearGradient>
<linearGradient id="paint10_linear_19_45" x1="575.455" y1="-419" x2="751.927" y2="381.574" gradientUnits="userSpaceOnUse">
<stop offset="0.459617" stop-color="#7855EF"/>
<stop offset="1" stop-color="#5127B0"/>
</linearGradient>
<linearGradient id="paint11_linear_19_45" x1="575.455" y1="-419" x2="751.927" y2="381.574" gradientUnits="userSpaceOnUse">
<stop offset="0.459617" stop-color="#7855EF"/>
<stop offset="1" stop-color="#5127B0"/>
</linearGradient>
<linearGradient id="paint12_linear_19_45" x1="575.455" y1="-419" x2="751.927" y2="381.574" gradientUnits="userSpaceOnUse">
<stop offset="0.459617" stop-color="#7855EF"/>
<stop offset="1" stop-color="#5127B0"/>
</linearGradient>
</defs>
</svg>
