<svg width="156" height="186" viewBox="0 0 156 186" fill="none" xmlns="http://www.w3.org/2000/svg">
  <path
    d="M0 6C0 2.68629 2.68629 0 6 0H41C44.3137 0 47 2.68629 47 6V52C47 55.3137 44.3137 58 41 58H6C2.68629 58 0 55.3137 0 52V6Z"
    fill="url(#paint0_linear_19_42)" />
  <path
    d="M0 76C0 72.6863 2.68629 70 6 70H41C44.3137 70 47 72.6863 47 76V130C47 133.314 44.3137 136 41 136H6C2.68629 136 0 133.314 0 130V76Z"
    fill="url(#paint1_linear_19_42)" />
  <path
    d="M0 154C0 150.686 2.68629 148 6 148H41C44.3137 148 47 150.686 47 154V180C47 183.314 44.3137 186 41 186H6C2.68629 186 0 183.314 0 180V154Z"
    fill="url(#paint2_linear_19_42)" />
  <path
    d="M55 6C55 2.68629 57.6863 0 61 0H95C98.3137 0 101 2.68629 101 6V86C101 89.3137 98.3137 92 95 92H61C57.6863 92 55 89.3137 55 86V6Z"
    fill="url(#paint3_linear_19_42)" />
  <path
    d="M55 110C55 106.686 57.6863 104 61 104H95C98.3137 104 101 106.686 101 110V138C101 141.314 98.3137 144 95 144H61C57.6863 144 55 141.314 55 138V110Z"
    fill="url(#paint4_linear_19_42)" />
  <path
    d="M55 162C55 158.686 57.6863 156 61 156H95C98.3137 156 101 158.686 101 162V180C101 183.314 98.3137 186 95 186H61C57.6863 186 55 183.314 55 180V162Z"
    fill="url(#paint5_linear_19_42)" />
  <path
    d="M109 6C109 2.68629 111.686 0 115 0H150C153.314 0 156 2.68629 156 6V29C156 32.3137 153.314 35 150 35H115C111.686 35 109 32.3137 109 29V6Z"
    fill="url(#paint6_linear_19_42)" />
  <path
    d="M109 53C109 49.6863 111.686 47 115 47H150C153.314 47 156 49.6863 156 53V110C156 113.314 153.314 116 150 116H115C111.686 116 109 113.314 109 110V53Z"
    fill="url(#paint7_linear_19_42)" />
  <path
    d="M109 134C109 130.686 111.686 128 115 128H150C153.314 128 156 130.686 156 134V180C156 183.314 153.314 186 150 186H115C111.686 186 109 183.314 109 180V134Z"
    fill="url(#paint8_linear_19_42)" />
  <defs>
    <linearGradient id="paint0_linear_19_42" x1="120.583" y1="-78.9551" x2="231.972" y2="194.296"
      gradientUnits="userSpaceOnUse">
      <stop offset="0.459617" stop-color="#7855EF" />
      <stop offset="1" stop-color="#5127B0" />
    </linearGradient>
    <linearGradient id="paint1_linear_19_42" x1="120.583" y1="-78.9551" x2="231.972" y2="194.296"
      gradientUnits="userSpaceOnUse">
      <stop offset="0.459617" stop-color="#7855EF" />
      <stop offset="1" stop-color="#5127B0" />
    </linearGradient>
    <linearGradient id="paint2_linear_19_42" x1="120.583" y1="-78.9551" x2="231.972" y2="194.296"
      gradientUnits="userSpaceOnUse">
      <stop offset="0.459617" stop-color="#7855EF" />
      <stop offset="1" stop-color="#5127B0" />
    </linearGradient>
    <linearGradient id="paint3_linear_19_42" x1="120.583" y1="-78.9551" x2="231.972" y2="194.296"
      gradientUnits="userSpaceOnUse">
      <stop offset="0.459617" stop-color="#7855EF" />
      <stop offset="1" stop-color="#5127B0" />
    </linearGradient>
    <linearGradient id="paint4_linear_19_42" x1="120.583" y1="-78.9551" x2="231.972" y2="194.296"
      gradientUnits="userSpaceOnUse">
      <stop offset="0.459617" stop-color="#7855EF" />
      <stop offset="1" stop-color="#5127B0" />
    </linearGradient>
    <linearGradient id="paint5_linear_19_42" x1="120.583" y1="-78.9551" x2="231.972" y2="194.296"
      gradientUnits="userSpaceOnUse">
      <stop offset="0.459617" stop-color="#7855EF" />
      <stop offset="1" stop-color="#5127B0" />
    </linearGradient>
    <linearGradient id="paint6_linear_19_42" x1="120.583" y1="-78.9551" x2="231.972" y2="194.296"
      gradientUnits="userSpaceOnUse">
      <stop offset="0.459617" stop-color="#7855EF" />
      <stop offset="1" stop-color="#5127B0" />
    </linearGradient>
    <linearGradient id="paint7_linear_19_42" x1="120.583" y1="-78.9551" x2="231.972" y2="194.296"
      gradientUnits="userSpaceOnUse">
      <stop offset="0.459617" stop-color="#7855EF" />
      <stop offset="1" stop-color="#5127B0" />
    </linearGradient>
    <linearGradient id="paint8_linear_19_42" x1="120.583" y1="-78.9551" x2="231.972" y2="194.296"
      gradientUnits="userSpaceOnUse">
      <stop offset="0.459617" stop-color="#7855EF" />
      <stop offset="1" stop-color="#5127B0" />
    </linearGradient>
  </defs>
</svg>
