<svg width="737" height="273" viewBox="0 0 737 273" fill="none" xmlns="http://www.w3.org/2000/svg">
<path d="M84.224 190.492C69.2214 190.492 55.3827 186.871 42.708 179.628C30.0333 172.127 19.816 162.297 12.056 150.14C4.29602 137.983 0.416016 124.92 0.416016 110.952V79.1359C0.416016 65.168 4.16668 52.2346 11.668 40.336C19.1693 28.1786 29.2574 18.4786 41.932 11.236C54.8654 3.99329 68.9627 0.371948 84.224 0.371948C99.4854 0.371948 113.453 3.99329 126.128 11.236C139.061 18.22 149.279 27.6613 156.78 39.56C164.54 51.4586 168.42 64.6506 168.42 79.1359V110.952C168.42 124.661 164.54 137.595 156.78 149.752C149.02 161.909 138.673 171.739 125.74 179.24C113.065 186.741 99.2267 190.492 84.224 190.492ZM84.224 146.648C90.432 146.648 96.1227 144.967 101.296 141.604C106.469 138.241 110.608 133.844 113.712 128.412C116.816 122.721 118.368 116.901 118.368 110.952V79.1359C118.368 73.1866 116.816 67.6253 113.712 62.452C110.608 57.2786 106.469 53.0106 101.296 49.648C96.3814 46.0266 90.6907 44.216 84.224 44.216C78.016 44.216 72.3253 45.8973 67.152 49.26C61.9787 52.6226 57.84 57.02 54.736 62.452C51.8907 67.6253 50.468 73.1866 50.468 79.1359V110.952C50.468 116.901 51.8907 122.721 54.736 128.412C57.84 133.844 61.9787 138.241 67.152 141.604C72.3253 144.967 78.016 146.648 84.224 146.648Z" fill="url(#paint0_linear_19_46)"/>
<path d="M225.095 272.748C218.111 272.748 212.291 271.067 207.635 267.704C202.979 264.341 200.651 260.72 200.651 256.84V18.2199C200.651 13.564 202.979 9.81329 207.635 6.96796C212.291 4.12262 217.982 2.69995 224.707 2.69995C231.433 2.69995 236.865 4.12262 241.003 6.96796C245.401 9.81329 247.599 13.564 247.599 18.2199V29.86C251.997 22.3586 258.722 15.6333 267.775 9.68396C276.829 3.47595 287.563 0.371948 299.979 0.371948C313.171 0.371948 324.941 3.99329 335.287 11.236C345.893 18.22 354.17 27.6613 360.119 39.56C366.327 51.4586 369.431 64.6506 369.431 79.1359V110.952C369.431 124.661 366.327 137.595 360.119 149.752C353.911 161.909 345.634 171.739 335.287 179.24C325.199 186.741 313.947 190.492 301.531 190.492C290.15 190.492 279.803 187.388 270.491 181.18C261.179 174.972 254.583 167.859 250.703 159.84V256.84C250.703 260.72 248.246 264.341 243.331 267.704C238.417 271.067 232.338 272.748 225.095 272.748ZM285.235 146.648C291.443 146.648 297.005 144.967 301.919 141.604C307.093 137.983 311.231 133.456 314.335 128.024C317.698 122.592 319.379 116.901 319.379 110.952V79.1359C319.379 73.1866 317.827 67.6253 314.723 62.452C311.619 57.2786 307.351 53.0106 301.919 49.648C296.746 46.0266 290.926 44.216 284.459 44.216C278.769 44.216 273.337 45.6386 268.163 48.484C263.249 51.3293 259.11 55.3386 255.747 60.512C252.385 65.6853 250.703 71.8933 250.703 79.1359V117.936C250.703 120.523 252.126 124.144 254.971 128.8C258.075 133.197 262.214 137.336 267.387 141.216C272.561 144.837 278.51 146.648 285.235 146.648Z" fill="url(#paint1_linear_19_46)"/>
<path d="M484.107 190.492C468.587 190.492 454.36 186.871 441.427 179.628C428.752 172.127 418.535 162.427 410.775 150.528C403.273 138.371 399.523 125.437 399.523 111.728V18.608C399.523 14.728 401.98 11.1066 406.895 7.74396C412.068 4.38129 418.017 2.69995 424.743 2.69995C431.468 2.69995 437.288 4.38129 442.203 7.74396C447.117 11.1066 449.575 14.728 449.575 18.608V111.728C449.575 117.677 451.127 123.239 454.231 128.412C457.335 133.585 461.473 137.983 466.647 141.604C471.82 144.967 477.511 146.648 483.719 146.648C490.185 146.648 495.876 144.967 500.791 141.604C505.964 138.241 510.103 133.844 513.207 128.412C516.311 122.98 517.863 117.419 517.863 111.728V18.2199C517.863 14.0813 520.32 10.4599 525.234 7.35595C530.408 4.25195 536.228 2.69995 542.695 2.69995C550.196 2.69995 556.275 4.25195 560.931 7.35595C565.587 10.4599 567.915 14.0813 567.915 18.2199V111.728C567.915 125.696 564.035 138.759 556.275 150.916C548.773 162.815 538.556 172.385 525.622 179.628C512.948 186.871 499.109 190.492 484.107 190.492Z" fill="url(#paint2_linear_19_46)"/>
<path d="M665.075 190.492C652.142 190.492 640.243 188.94 629.379 185.836C618.774 182.473 610.367 178.205 604.159 173.032C598.21 167.859 595.235 162.556 595.235 157.124C595.235 154.279 595.882 151.175 597.175 147.812C598.727 144.449 600.667 141.475 602.995 138.888C605.582 136.301 608.557 135.008 611.919 135.008C615.541 135.008 619.291 136.56 623.171 139.664C627.31 142.509 632.354 145.355 638.303 148.2C644.511 151.045 653.047 152.468 663.911 152.468C675.551 152.468 683.182 150.657 686.803 147.036C690.683 143.415 692.623 139.664 692.623 135.784C692.623 130.093 690.295 125.696 685.639 122.592C681.242 119.488 675.551 117.031 668.567 115.22C661.583 113.151 654.082 110.952 646.063 108.624C638.303 106.296 630.931 103.321 623.947 99.7C616.963 95.82 611.273 90.6466 606.875 84.18C602.478 77.4546 600.279 68.7893 600.279 58.184C600.279 48.872 602.478 39.8186 606.875 31.024C611.273 22.2293 618.515 14.9866 628.603 9.29595C638.691 3.34662 652.401 0.371948 669.731 0.371948C680.337 0.371948 690.295 1.53595 699.607 3.86395C709.178 5.93329 716.938 8.90795 722.887 12.788C728.836 16.668 731.811 20.936 731.811 25.592C731.811 27.92 731.035 31.024 729.483 34.904C727.931 38.5253 725.732 41.888 722.887 44.992C720.3 48.096 717.067 49.648 713.187 49.648C710.342 49.648 706.85 48.7426 702.711 46.9319C698.831 44.8626 694.304 42.9226 689.131 41.112C683.958 39.3013 677.75 38.396 670.507 38.396C664.041 38.396 658.867 39.3013 654.987 41.112C651.107 42.9226 648.262 45.1213 646.451 47.708C644.641 50.2946 643.735 53.0106 643.735 55.8559C643.735 60.512 645.934 64.1333 650.331 66.72C654.729 69.3066 660.419 71.5053 667.403 73.316C674.646 75.1266 682.147 77.196 689.907 79.524C697.926 81.5933 705.427 84.6973 712.411 88.836C719.654 92.9746 725.474 98.6653 729.871 105.908C734.268 112.892 736.467 122.075 736.467 133.456C736.467 150.787 730.259 164.625 717.843 174.972C705.686 185.319 688.097 190.492 665.075 190.492Z" fill="url(#paint3_linear_19_46)"/>
<defs>
<linearGradient id="paint0_linear_19_46" x1="575.455" y1="-419" x2="751.927" y2="381.574" gradientUnits="userSpaceOnUse">
<stop offset="0.459617" stop-color="#7855EF"/>
<stop offset="1" stop-color="#5127B0"/>
</linearGradient>
<linearGradient id="paint1_linear_19_46" x1="575.455" y1="-419" x2="751.927" y2="381.574" gradientUnits="userSpaceOnUse">
<stop offset="0.459617" stop-color="#7855EF"/>
<stop offset="1" stop-color="#5127B0"/>
</linearGradient>
<linearGradient id="paint2_linear_19_46" x1="575.455" y1="-419" x2="751.927" y2="381.574" gradientUnits="userSpaceOnUse">
<stop offset="0.459617" stop-color="#7855EF"/>
<stop offset="1" stop-color="#5127B0"/>
</linearGradient>
<linearGradient id="paint3_linear_19_46" x1="575.455" y1="-419" x2="751.927" y2="381.574" gradientUnits="userSpaceOnUse">
<stop offset="0.459617" stop-color="#7855EF"/>
<stop offset="1" stop-color="#5127B0"/>
</linearGradient>
</defs>
</svg>
